<svg width="44" height="69" viewBox="0 0 44 69" fill="none" xmlns="http://www.w3.org/2000/svg">
<path d="M1.03125 39.5781C1.03125 37.3281 1.03125 35.2031 1.03125 33.2031C1.0625 31.2031 1.10938 29.2344 1.17188 27.2969C1.26562 25.3281 1.375 23.3438 1.5 21.3438C1.625 19.3125 1.79688 17.125 2.01562 14.7812H3.375V32.7812H13.5938C13.5625 31.6562 13.5469 30.4531 13.5469 29.1719C13.5469 27.8594 13.5312 26.5469 13.5 25.2344C13.4688 23.8906 13.4375 22.5938 13.4062 21.3438C13.4062 20.0625 13.4062 18.8594 13.4062 17.7344C13.4062 16.6094 13.4062 15.625 13.4062 14.7812C13.4062 13.9375 13.4062 13.2812 13.4062 12.8125C13.5 12.8125 13.6562 12.8437 13.875 12.9062C14.125 12.9375 14.3594 13 14.5781 13.0938C14.8281 13.1563 15.0469 13.2656 15.2344 13.4219C15.4219 13.5469 15.5156 13.7188 15.5156 13.9375V49.0469L14.0625 48.7656C14 48.7656 13.9531 48.5625 13.9219 48.1562C13.8906 47.75 13.8594 47.25 13.8281 46.6562C13.8281 46.0312 13.8125 45.3281 13.7812 44.5469C13.7812 43.7344 13.7656 42.9531 13.7344 42.2031C13.7344 41.4219 13.7188 40.6875 13.6875 40C13.6875 39.3125 13.6875 38.7344 13.6875 38.2656C13.6875 37.8281 13.6875 37.2344 13.6875 36.4844C13.6875 35.7344 13.6719 34.875 13.6406 33.9062L3.375 35.7344L3.28125 49.0938H1.03125C1.03125 49.0625 1.03125 48.8438 1.03125 48.4375C1.03125 48.0312 1.03125 47.5312 1.03125 46.9375C1.03125 46.3125 1.03125 45.6406 1.03125 44.9219C1.03125 44.1719 1.03125 43.4531 1.03125 42.7656C1.03125 42.0781 1.03125 41.4531 1.03125 40.8906C1.03125 40.3281 1.03125 39.8906 1.03125 39.5781ZM19.3125 37.9844C19.3125 37.0469 19.5156 36.0156 19.9219 34.8906C20.3281 33.7344 20.875 32.6719 21.5625 31.7031C22.2812 30.7031 23.0781 29.875 23.9531 29.2188C24.8594 28.5312 25.7969 28.1875 26.7656 28.1875C27.2969 28.1875 27.8125 28.2969 28.3125 28.5156C28.8438 28.7344 29.3438 29.0312 29.8125 29.4062C30.3125 29.75 30.75 30.1562 31.125 30.625C31.5312 31.0625 31.8438 31.5312 32.0625 32.0312C32.2812 32.5312 32.3906 33.0156 32.3906 33.4844C32.4219 33.9531 32.2969 34.3594 32.0156 34.7031L22.125 36.5312C22 36.5625 21.8906 36.7188 21.7969 37C21.7031 37.25 21.625 37.5781 21.5625 37.9844C21.5 38.3906 21.4375 38.8438 21.375 39.3438C21.3438 39.8125 21.3125 40.2812 21.2812 40.75C21.25 41.1875 21.2344 41.5938 21.2344 41.9688C21.2344 42.3125 21.2344 42.5781 21.2344 42.7656C21.2344 43.6406 21.4375 44.3594 21.8438 44.9219C22.2812 45.4531 22.8281 45.8594 23.4844 46.1406C24.1406 46.4219 24.875 46.6094 25.6875 46.7031C26.5312 46.7969 27.3594 46.8438 28.1719 46.8438C28.9844 46.8438 29.75 46.8125 30.4688 46.75C31.1875 46.6875 31.7812 46.6562 32.25 46.6562C32.25 46.7812 32.2031 46.9219 32.1094 47.0781C32.0156 47.2344 31.9062 47.3906 31.7812 47.5469C31.6562 47.6719 31.5312 47.7969 31.4062 47.9219C31.2812 48.0156 31.2031 48.0781 31.1719 48.1094C30.9219 48.1719 30.5312 48.2656 30 48.3906C29.5 48.4844 28.9531 48.5781 28.3594 48.6719C27.7969 48.7656 27.2656 48.8438 26.7656 48.9062C26.2656 48.9688 25.9219 49 25.7344 49C24.7656 49.1875 23.9219 49.1719 23.2031 48.9531C22.4844 48.7344 21.875 48.3594 21.375 47.8281C20.875 47.2969 20.4688 46.6562 20.1562 45.9062C19.8438 45.125 19.6094 44.2969 19.4531 43.4219C19.2969 42.5469 19.2031 41.6406 19.1719 40.7031C19.1719 39.7656 19.2188 38.8594 19.3125 37.9844ZM26.1094 29.9688C25.8281 29.9688 25.4531 30.125 24.9844 30.4375C24.5469 30.7188 24.125 31.0938 23.7188 31.5625C23.3438 32 23.0156 32.4844 22.7344 33.0156C22.4844 33.5156 22.4062 33.9531 22.5 34.3281C23.3125 34.4219 24.1562 34.4062 25.0312 34.2812C25.9062 34.1562 26.7031 33.9688 27.4219 33.7188C28.1406 33.4375 28.7344 33.125 29.2031 32.7812C29.6719 32.4062 29.8906 32.0312 29.8594 31.6562C29.8594 31.2812 29.5625 30.9531 28.9688 30.6719C28.4062 30.3594 27.4531 30.125 26.1094 29.9688ZM23.3906 63.7656C23.3906 63.4531 23.4219 63.1875 23.4844 62.9688C23.5156 62.75 23.6094 62.625 23.7656 62.5938C23.8906 62.5625 24.0781 62.625 24.3281 62.7812C24.5781 62.9688 24.8906 63.3125 25.2656 63.8125C25.2656 64.2188 25.5625 64.5469 26.1562 64.7969C26.7188 65.0469 27.375 65.2344 28.125 65.3594C28.875 65.5156 29.6406 65.6094 30.4219 65.6406C31.1719 65.6719 31.7188 65.6875 32.0625 65.6875C33.5938 65.6875 34.8906 65.4062 35.9531 64.8438C37.0469 64.3125 37.9375 63.5781 38.625 62.6406C39.3438 61.7344 39.8594 60.6562 40.1719 59.4062C40.5156 58.1875 40.6875 56.9062 40.6875 55.5625C40.6875 53.625 40.5469 51.75 40.2656 49.9375C40.0156 48.1562 39.6719 46.375 39.2344 44.5938C38.7969 42.7812 38.2969 40.9531 37.7344 39.1094C37.1719 37.2344 36.6094 35.2656 36.0469 33.2031C35.8281 32.2656 35.7656 31.5625 35.8594 31.0938C35.9531 30.625 36.1094 30.3281 36.3281 30.2031C36.5781 30.0469 36.8438 30.0156 37.125 30.1094C37.4375 30.2031 37.6875 30.3438 37.875 30.5312C38.4062 32.5 38.9375 34.5312 39.4688 36.625C40 38.6875 40.5 40.7969 40.9688 42.9531C41.4375 45.1094 41.8125 47.2812 42.0938 49.4688C42.375 51.6562 42.5156 53.8125 42.5156 55.9375C42.5156 57.4062 42.3281 58.8281 41.9531 60.2031C41.5781 61.6094 40.9844 62.8438 40.1719 63.9062C39.3906 64.9688 38.4062 65.8281 37.2188 66.4844C36.0312 67.1406 34.6094 67.4688 32.9531 67.4688C32.2031 67.4688 31.2812 67.4531 30.1875 67.4219C29.0938 67.3906 28.0469 67.25 27.0469 67C26.0156 66.7812 25.1562 66.4219 24.4688 65.9219C23.75 65.4531 23.3906 64.7344 23.3906 63.7656ZM33.9375 18.6719C34.3438 18.6719 34.7812 18.7344 35.25 18.8594C35.7188 18.9531 36.1562 19.125 36.5625 19.375C36.9688 19.5938 37.2969 19.8906 37.5469 20.2656C37.8281 20.6094 37.9688 21.0312 37.9688 21.5312C37.9688 22.75 37.3281 23.3594 36.0469 23.3594C35.4531 23.3594 35 23.2031 34.6875 22.8906C34.375 22.5781 34.1562 22.1875 34.0312 21.7188C33.9375 21.25 33.8906 20.75 33.8906 20.2188C33.9219 19.6562 33.9375 19.1406 33.9375 18.6719ZM36.0469 21.2969C35.9531 21.2969 35.9062 21.375 35.9062 21.5312C35.9062 21.6562 35.9531 21.7188 36.0469 21.7188C36.1719 21.7188 36.2344 21.6562 36.2344 21.5312C36.2344 21.375 36.1719 21.2969 36.0469 21.2969Z" fill="black"/>
</svg>
